<mxfile host="app.diagrams.net" agent="Mozilla/5.0 (Windows NT 10.0; Win64; x64) AppleWebKit/537.36 (KHTML, like Gecko) Chrome/137.0.0.0 Safari/537.36 Edg/137.0.0.0" version="27.1.6">
  <diagram name="Page-1" id="q6fW4n7F2eLG4jjfFjZH">
    <mxGraphModel dx="2633" dy="1028" grid="1" gridSize="10" guides="1" tooltips="1" connect="1" arrows="1" fold="1" page="1" pageScale="1" pageWidth="1100" pageHeight="850" math="0" shadow="0">
      <root>
        <mxCell id="0" />
        <mxCell id="1" parent="0" />
        <mxCell id="w-R1Q5mpOw3tjuo67Pxt-24" value="" style="endArrow=none;dashed=1;html=1;rounded=0;" parent="1" edge="1">
          <mxGeometry width="50" height="50" relative="1" as="geometry">
            <mxPoint x="380" y="340" as="sourcePoint" />
            <mxPoint x="720" y="340" as="targetPoint" />
          </mxGeometry>
        </mxCell>
        <mxCell id="w-R1Q5mpOw3tjuo67Pxt-1" value="" style="rounded=1;whiteSpace=wrap;html=1;sketch=1;curveFitting=1;jiggle=2;" parent="1" vertex="1">
          <mxGeometry x="10" y="560" width="830" height="260" as="geometry" />
        </mxCell>
        <mxCell id="w-R1Q5mpOw3tjuo67Pxt-2" value="&lt;div&gt;&lt;font face=&quot;Lucida Console&quot;&gt;Structural 3.03&lt;/font&gt;&lt;/div&gt;" style="text;html=1;align=center;verticalAlign=middle;whiteSpace=wrap;rounded=0;fontStyle=5;fontSize=17;" parent="1" vertex="1">
          <mxGeometry x="260" y="560" width="330" height="70" as="geometry" />
        </mxCell>
        <mxCell id="w-R1Q5mpOw3tjuo67Pxt-3" value="&lt;pre&gt;&lt;b style=&quot;&quot;&gt;&lt;u style=&quot;&quot;&gt;&lt;font face=&quot;Lucida Console&quot; style=&quot;font-size: 17px;&quot;&gt;** NOT TO SCALE **&lt;/font&gt;&lt;/u&gt;&lt;/b&gt;&lt;/pre&gt;" style="text;strokeColor=none;fillColor=none;align=center;verticalAlign=middle;spacingLeft=4;spacingRight=4;overflow=hidden;points=[[0,0.5],[1,0.5]];portConstraint=eastwest;rotatable=0;whiteSpace=wrap;html=1;" parent="1" vertex="1">
          <mxGeometry x="285" y="780" width="280" height="40" as="geometry" />
        </mxCell>
        <mxCell id="w-R1Q5mpOw3tjuo67Pxt-4" value="&lt;u&gt;&lt;font face=&quot;Lucida Console&quot; style=&quot;font-size: 18px;&quot;&gt;CMU POOL&lt;/font&gt;&lt;/u&gt;&lt;div style=&quot;text-align: left;&quot;&gt;&lt;span style=&quot;font-size: 10px;&quot;&gt;&lt;font face=&quot;Lucida Console&quot;&gt;Cruz Wootten&lt;/font&gt;&lt;/span&gt;&lt;/div&gt;&lt;div style=&quot;text-align: left;&quot;&gt;&lt;font face=&quot;Lucida Console&quot;&gt;&lt;span style=&quot;font-size: 10px; background-color: transparent; color: light-dark(rgb(0, 0, 0), rgb(255, 255, 255));&quot;&gt;17575 Parrot Drive&amp;nbsp;&lt;/span&gt;&lt;br&gt;&lt;span style=&quot;font-size: 10px; background-color: transparent; color: light-dark(rgb(0, 0, 0), rgb(255, 255, 255));&quot;&gt;Reno, Nevada&lt;/span&gt;&lt;/font&gt;&lt;/div&gt;&lt;div style=&quot;text-align: left;&quot;&gt;&lt;span style=&quot;background-color: transparent; color: light-dark(rgb(0, 0, 0), rgb(255, 255, 255)); font-size: 10px;&quot;&gt;&lt;font face=&quot;Lucida Console&quot;&gt;775.501.4398&lt;/font&gt;&lt;/span&gt;&lt;/div&gt;" style="swimlane;whiteSpace=wrap;html=1;startSize=100;align=center;" parent="1" vertex="1">
          <mxGeometry x="890" y="640" width="200" height="200" as="geometry" />
        </mxCell>
        <mxCell id="w-R1Q5mpOw3tjuo67Pxt-5" value="&lt;font style=&quot;font-size: 31px;&quot;&gt;&amp;nbsp;S3.03&lt;/font&gt;" style="text;html=1;align=left;verticalAlign=middle;whiteSpace=wrap;rounded=0;" parent="w-R1Q5mpOw3tjuo67Pxt-4" vertex="1">
          <mxGeometry y="100" width="200" height="100" as="geometry" />
        </mxCell>
        <mxCell id="w-R1Q5mpOw3tjuo67Pxt-6" value="Structural" style="text;html=1;align=center;verticalAlign=middle;whiteSpace=wrap;rounded=0;" parent="w-R1Q5mpOw3tjuo67Pxt-4" vertex="1">
          <mxGeometry x="10" y="110" width="70" height="30" as="geometry" />
        </mxCell>
        <mxCell id="w-R1Q5mpOw3tjuo67Pxt-7" value="" style="endArrow=none;html=1;rounded=0;exitX=0.5;exitY=1;exitDx=0;exitDy=0;" parent="w-R1Q5mpOw3tjuo67Pxt-4" source="w-R1Q5mpOw3tjuo67Pxt-5" edge="1">
          <mxGeometry width="50" height="50" relative="1" as="geometry">
            <mxPoint x="50" y="150" as="sourcePoint" />
            <mxPoint x="100" y="100" as="targetPoint" />
          </mxGeometry>
        </mxCell>
        <mxCell id="w-R1Q5mpOw3tjuo67Pxt-8" value="&lt;div&gt;&lt;font style=&quot;font-size: 13px;&quot;&gt;Drawing&lt;/font&gt;&lt;/div&gt;&lt;div&gt;&lt;font style=&quot;font-size: 13px;&quot;&gt;Page&lt;/font&gt;&lt;/div&gt;&lt;div&gt;&lt;span style=&quot;font-size: 24px; background-color: transparent; color: light-dark(rgb(0, 0, 0), rgb(255, 255, 255));&quot;&gt;7 / X&lt;/span&gt;&lt;/div&gt;" style="text;html=1;align=center;verticalAlign=middle;whiteSpace=wrap;rounded=0;fillColor=default;" parent="1" vertex="1">
          <mxGeometry x="990" y="740" width="100" height="100" as="geometry" />
        </mxCell>
        <mxCell id="w-R1Q5mpOw3tjuo67Pxt-9" value="&lt;pre&gt;* All slabs to use #4 Rebar&lt;/pre&gt;" style="text;html=1;align=center;verticalAlign=middle;whiteSpace=wrap;rounded=0;strokeColor=none;" parent="1" vertex="1">
          <mxGeometry x="40" y="610" width="240" height="30" as="geometry" />
        </mxCell>
        <mxCell id="w-R1Q5mpOw3tjuo67Pxt-10" value="&lt;pre&gt;* All steel shall have a minimum 6&quot; clearance from surrounding earth and forms before concrete pour&lt;/pre&gt;" style="text;html=1;align=center;verticalAlign=middle;whiteSpace=wrap;rounded=0;strokeColor=none;" parent="1" vertex="1">
          <mxGeometry x="80" y="630" width="635" height="50" as="geometry" />
        </mxCell>
        <mxCell id="w-R1Q5mpOw3tjuo67Pxt-13" value="" style="rounded=1;whiteSpace=wrap;html=1;movable=0;resizable=0;rotatable=0;deletable=0;editable=0;locked=1;connectable=0;" parent="1" vertex="1">
          <mxGeometry x="10" y="10" width="1070" height="520" as="geometry" />
        </mxCell>
        <mxCell id="g86L-Ri1vE0_HwikzMnk-49" value="" style="whiteSpace=wrap;html=1;shape=mxgraph.basic.cloud_callout;fillColor=#cce5ff;strokeColor=#36393d;fillStyle=cross-hatch;sketch=1;curveFitting=1;jiggle=2;movable=0;resizable=0;rotatable=0;deletable=0;editable=0;locked=1;connectable=0;" parent="1" vertex="1">
          <mxGeometry x="280" y="80" width="510" height="60" as="geometry" />
        </mxCell>
        <mxCell id="w-R1Q5mpOw3tjuo67Pxt-14" value="&lt;font face=&quot;Lucida Console&quot;&gt;WALKWAY DETAIL (SINGLE FLAG)&lt;/font&gt;" style="text;html=1;align=center;verticalAlign=middle;whiteSpace=wrap;rounded=0;" parent="1" vertex="1">
          <mxGeometry x="395" y="30" width="300" height="30" as="geometry" />
        </mxCell>
        <mxCell id="w-R1Q5mpOw3tjuo67Pxt-15" value="" style="rounded=0;whiteSpace=wrap;html=1;movable=1;resizable=1;rotatable=1;deletable=1;editable=1;locked=0;connectable=1;" parent="1" vertex="1">
          <mxGeometry x="320" y="150" width="410" height="210" as="geometry" />
        </mxCell>
        <mxCell id="w-R1Q5mpOw3tjuo67Pxt-17" value="&lt;font face=&quot;Lucida Console&quot; style=&quot;font-size: 19px;&quot;&gt;&#39;2&lt;/font&gt;" style="shape=dimension;direction=north;whiteSpace=wrap;html=1;align=center;points=[];verticalAlign=bottom;labelBackgroundColor=none;horizontal=0;spacingBottom=3;dashed=1;" parent="1" vertex="1">
          <mxGeometry x="770" y="150" width="270" height="210" as="geometry" />
        </mxCell>
        <mxCell id="w-R1Q5mpOw3tjuo67Pxt-18" value="" style="endArrow=none;dashed=1;html=1;rounded=0;" parent="1" source="g86L-Ri1vE0_HwikzMnk-1" edge="1">
          <mxGeometry width="50" height="50" relative="1" as="geometry">
            <mxPoint x="380" y="340" as="sourcePoint" />
            <mxPoint x="380" y="170" as="targetPoint" />
          </mxGeometry>
        </mxCell>
        <mxCell id="w-R1Q5mpOw3tjuo67Pxt-20" value="" style="endArrow=none;dashed=1;html=1;rounded=0;" parent="1" edge="1">
          <mxGeometry width="50" height="50" relative="1" as="geometry">
            <mxPoint x="522.5" y="340" as="sourcePoint" />
            <mxPoint x="522.5" y="170" as="targetPoint" />
          </mxGeometry>
        </mxCell>
        <mxCell id="w-R1Q5mpOw3tjuo67Pxt-22" value="" style="endArrow=none;dashed=1;html=1;rounded=0;" parent="1" source="g86L-Ri1vE0_HwikzMnk-3" edge="1">
          <mxGeometry width="50" height="50" relative="1" as="geometry">
            <mxPoint x="662.5" y="340" as="sourcePoint" />
            <mxPoint x="662.5" y="170" as="targetPoint" />
          </mxGeometry>
        </mxCell>
        <mxCell id="w-R1Q5mpOw3tjuo67Pxt-25" value="" style="endArrow=none;dashed=1;html=1;rounded=0;" parent="1" source="g86L-Ri1vE0_HwikzMnk-5" edge="1">
          <mxGeometry width="50" height="50" relative="1" as="geometry">
            <mxPoint x="353.5" y="220" as="sourcePoint" />
            <mxPoint x="696.5" y="220" as="targetPoint" />
          </mxGeometry>
        </mxCell>
        <mxCell id="g86L-Ri1vE0_HwikzMnk-1" value="" style="rhombus;whiteSpace=wrap;html=1;fillStyle=solid;strokeColor=#2D7600;align=center;verticalAlign=middle;fontFamily=Helvetica;fontSize=12;fontColor=#ffffff;fillColor=#60a917;" parent="1" vertex="1">
          <mxGeometry x="360" y="210" width="40" height="20" as="geometry" />
        </mxCell>
        <mxCell id="w-R1Q5mpOw3tjuo67Pxt-42" style="edgeStyle=orthogonalEdgeStyle;rounded=0;orthogonalLoop=1;jettySize=auto;html=1;exitX=1;exitY=0.5;exitDx=0;exitDy=0;" parent="1" source="w-R1Q5mpOw3tjuo67Pxt-41" edge="1">
          <mxGeometry relative="1" as="geometry">
            <mxPoint x="380" y="330" as="targetPoint" />
            <Array as="points">
              <mxPoint x="225" y="333" />
              <mxPoint x="225" y="330" />
            </Array>
            <mxPoint x="250" y="330" as="sourcePoint" />
          </mxGeometry>
        </mxCell>
        <mxCell id="w-R1Q5mpOw3tjuo67Pxt-41" value="&lt;pre&gt;#4 REBAR&lt;/pre&gt;" style="rounded=1;whiteSpace=wrap;html=1;" parent="1" vertex="1">
          <mxGeometry x="210" y="305" width="90" height="55" as="geometry" />
        </mxCell>
        <mxCell id="g86L-Ri1vE0_HwikzMnk-2" value="" style="endArrow=none;dashed=1;html=1;rounded=0;" parent="1" source="g86L-Ri1vE0_HwikzMnk-13" target="g86L-Ri1vE0_HwikzMnk-1" edge="1">
          <mxGeometry width="50" height="50" relative="1" as="geometry">
            <mxPoint x="380" y="340" as="sourcePoint" />
            <mxPoint x="380" y="170" as="targetPoint" />
          </mxGeometry>
        </mxCell>
        <mxCell id="g86L-Ri1vE0_HwikzMnk-3" value="" style="rhombus;whiteSpace=wrap;html=1;fillStyle=solid;strokeColor=#2D7600;align=center;verticalAlign=middle;fontFamily=Helvetica;fontSize=12;fontColor=#ffffff;fillColor=#60a917;" parent="1" vertex="1">
          <mxGeometry x="642.5" y="210" width="40" height="20" as="geometry" />
        </mxCell>
        <mxCell id="g86L-Ri1vE0_HwikzMnk-6" value="" style="rhombus;whiteSpace=wrap;html=1;fillStyle=solid;strokeColor=#2D7600;align=center;verticalAlign=middle;fontFamily=Helvetica;fontSize=12;fontColor=#ffffff;fillColor=#60a917;" parent="1" vertex="1">
          <mxGeometry x="505" y="280" width="40" height="20" as="geometry" />
        </mxCell>
        <mxCell id="g86L-Ri1vE0_HwikzMnk-9" value="" style="endArrow=none;dashed=1;html=1;rounded=0;" parent="1" edge="1">
          <mxGeometry width="50" height="50" relative="1" as="geometry">
            <mxPoint x="350" y="290" as="sourcePoint" />
            <mxPoint x="697.5" y="289.76" as="targetPoint" />
          </mxGeometry>
        </mxCell>
        <mxCell id="g86L-Ri1vE0_HwikzMnk-14" value="" style="endArrow=none;dashed=1;html=1;rounded=0;" parent="1" target="g86L-Ri1vE0_HwikzMnk-13" edge="1">
          <mxGeometry width="50" height="50" relative="1" as="geometry">
            <mxPoint x="380" y="340" as="sourcePoint" />
            <mxPoint x="380" y="210" as="targetPoint" />
          </mxGeometry>
        </mxCell>
        <mxCell id="g86L-Ri1vE0_HwikzMnk-13" value="" style="rhombus;whiteSpace=wrap;html=1;fillStyle=solid;strokeColor=#2D7600;align=center;verticalAlign=middle;fontFamily=Helvetica;fontSize=12;fontColor=#ffffff;fillColor=#60a917;" parent="1" vertex="1">
          <mxGeometry x="360" y="280" width="40" height="20" as="geometry" />
        </mxCell>
        <mxCell id="g86L-Ri1vE0_HwikzMnk-16" style="edgeStyle=orthogonalEdgeStyle;rounded=0;orthogonalLoop=1;jettySize=auto;html=1;entryX=0;entryY=0;entryDx=0;entryDy=0;" parent="1" source="g86L-Ri1vE0_HwikzMnk-15" target="g86L-Ri1vE0_HwikzMnk-1" edge="1">
          <mxGeometry relative="1" as="geometry" />
        </mxCell>
        <mxCell id="g86L-Ri1vE0_HwikzMnk-15" value="&lt;font face=&quot;Lucida Console&quot;&gt;&lt;span style=&quot;font-size: 8px;&quot;&gt;MASON TYPE CHAIR &#39;DOBIE&#39;&lt;/span&gt;&lt;/font&gt;" style="rounded=1;whiteSpace=wrap;html=1;" parent="1" vertex="1">
          <mxGeometry x="210" y="220" width="90" height="55" as="geometry" />
        </mxCell>
        <mxCell id="g86L-Ri1vE0_HwikzMnk-22" value="" style="endArrow=none;dashed=1;html=1;rounded=0;entryX=0.5;entryY=1;entryDx=0;entryDy=0;" parent="1" target="g86L-Ri1vE0_HwikzMnk-3" edge="1">
          <mxGeometry width="50" height="50" relative="1" as="geometry">
            <mxPoint x="662.5" y="340" as="sourcePoint" />
            <mxPoint x="660.2898550724638" y="264.855072463768" as="targetPoint" />
          </mxGeometry>
        </mxCell>
        <mxCell id="g86L-Ri1vE0_HwikzMnk-8" value="" style="rhombus;whiteSpace=wrap;html=1;fillStyle=solid;strokeColor=#2D7600;align=center;verticalAlign=middle;fontFamily=Helvetica;fontSize=12;fontColor=#ffffff;fillColor=#60a917;" parent="1" vertex="1">
          <mxGeometry x="642.5" y="280" width="40" height="20" as="geometry" />
        </mxCell>
        <mxCell id="w-R1Q5mpOw3tjuo67Pxt-16" value="&lt;font face=&quot;Lucida Console&quot; style=&quot;font-size: 17px;&quot;&gt;&#39;3&lt;/font&gt;" style="shape=dimension;whiteSpace=wrap;html=1;align=center;points=[];verticalAlign=bottom;spacingBottom=3;labelBackgroundColor=none;" parent="1" vertex="1">
          <mxGeometry x="320" y="400" width="410" height="40" as="geometry" />
        </mxCell>
        <mxCell id="g86L-Ri1vE0_HwikzMnk-38" value="" style="endArrow=none;dashed=1;html=1;rounded=0;" parent="1" target="g86L-Ri1vE0_HwikzMnk-5" edge="1">
          <mxGeometry width="50" height="50" relative="1" as="geometry">
            <mxPoint x="353.5" y="220" as="sourcePoint" />
            <mxPoint x="696.5" y="220" as="targetPoint" />
          </mxGeometry>
        </mxCell>
        <mxCell id="g86L-Ri1vE0_HwikzMnk-5" value="" style="rhombus;whiteSpace=wrap;html=1;fillStyle=solid;strokeColor=#2D7600;align=center;verticalAlign=middle;fontFamily=Helvetica;fontSize=12;fontColor=#ffffff;fillColor=#60a917;" parent="1" vertex="1">
          <mxGeometry x="505" y="210" width="40" height="20" as="geometry" />
        </mxCell>
        <mxCell id="g86L-Ri1vE0_HwikzMnk-39" value="&lt;font face=&quot;Lucida Console&quot; style=&quot;font-size: 19px;&quot;&gt;8&quot;&lt;/font&gt;" style="shape=dimension;direction=north;whiteSpace=wrap;html=1;align=center;points=[];verticalAlign=bottom;labelBackgroundColor=none;horizontal=0;spacingBottom=3;" parent="1" vertex="1">
          <mxGeometry x="730" y="220" width="40" height="70" as="geometry" />
        </mxCell>
        <mxCell id="g86L-Ri1vE0_HwikzMnk-40" value="&lt;font face=&quot;Lucida Console&quot; style=&quot;font-size: 17px;&quot;&gt;9&quot;&lt;/font&gt;" style="shape=dimension;whiteSpace=wrap;html=1;align=center;points=[];verticalAlign=bottom;spacingBottom=3;labelBackgroundColor=none;" parent="1" vertex="1">
          <mxGeometry x="520" y="360" width="140" height="40" as="geometry" />
        </mxCell>
        <mxCell id="g86L-Ri1vE0_HwikzMnk-41" value="&lt;pre&gt;&lt;font style=&quot;font-size: 8px;&quot;&gt;BLOCK&lt;/font&gt;&lt;/pre&gt;" style="html=1;whiteSpace=wrap;" parent="1" vertex="1">
          <mxGeometry x="280" y="110" width="70" height="40" as="geometry" />
        </mxCell>
        <mxCell id="g86L-Ri1vE0_HwikzMnk-42" value="&lt;pre&gt;&lt;font style=&quot;font-size: 8px;&quot;&gt;BLOCK&lt;/font&gt;&lt;/pre&gt;" style="html=1;whiteSpace=wrap;" parent="1" vertex="1">
          <mxGeometry x="350" y="110" width="70" height="40" as="geometry" />
        </mxCell>
        <mxCell id="g86L-Ri1vE0_HwikzMnk-43" value="&lt;pre&gt;&lt;font style=&quot;font-size: 8px;&quot;&gt;BLOCK&lt;/font&gt;&lt;/pre&gt;" style="html=1;whiteSpace=wrap;movable=0;resizable=0;rotatable=0;deletable=0;editable=0;locked=1;connectable=0;" parent="1" vertex="1">
          <mxGeometry x="420" y="110" width="70" height="40" as="geometry" />
        </mxCell>
        <mxCell id="g86L-Ri1vE0_HwikzMnk-44" value="&lt;pre&gt;&lt;font style=&quot;font-size: 8px;&quot;&gt;BLOCK&lt;/font&gt;&lt;/pre&gt;" style="html=1;whiteSpace=wrap;" parent="1" vertex="1">
          <mxGeometry x="490" y="110" width="70" height="40" as="geometry" />
        </mxCell>
        <mxCell id="g86L-Ri1vE0_HwikzMnk-45" value="&lt;pre&gt;&lt;font style=&quot;font-size: 8px;&quot;&gt;BLOCK&lt;/font&gt;&lt;/pre&gt;" style="html=1;whiteSpace=wrap;movable=0;resizable=0;rotatable=0;deletable=0;editable=0;locked=1;connectable=0;" parent="1" vertex="1">
          <mxGeometry x="560" y="110" width="70" height="40" as="geometry" />
        </mxCell>
        <mxCell id="g86L-Ri1vE0_HwikzMnk-47" value="&lt;pre&gt;&lt;font style=&quot;font-size: 8px;&quot;&gt;BLOCK&lt;/font&gt;&lt;/pre&gt;" style="html=1;whiteSpace=wrap;" parent="1" vertex="1">
          <mxGeometry x="630" y="110" width="70" height="40" as="geometry" />
        </mxCell>
        <mxCell id="g86L-Ri1vE0_HwikzMnk-48" value="&lt;pre&gt;&lt;font style=&quot;font-size: 8px;&quot;&gt;BLOCK&lt;/font&gt;&lt;/pre&gt;" style="html=1;whiteSpace=wrap;" parent="1" vertex="1">
          <mxGeometry x="700" y="110" width="70" height="40" as="geometry" />
        </mxCell>
        <mxCell id="g86L-Ri1vE0_HwikzMnk-50" value="&lt;pre&gt;&lt;font style=&quot;font-size: 9px;&quot;&gt;POOL INTERIOR&lt;/font&gt;&lt;/pre&gt;" style="text;strokeColor=none;fillColor=none;html=1;fontSize=24;fontStyle=1;verticalAlign=middle;align=center;" parent="1" vertex="1">
          <mxGeometry x="485" y="70" width="100" height="40" as="geometry" />
        </mxCell>
        <mxCell id="g86L-Ri1vE0_HwikzMnk-51" value="" style="shape=crossbar;whiteSpace=wrap;html=1;rounded=1;direction=south;" parent="1" vertex="1">
          <mxGeometry x="720" y="150" width="20" height="220" as="geometry" />
        </mxCell>
        <mxCell id="g86L-Ri1vE0_HwikzMnk-53" style="edgeStyle=orthogonalEdgeStyle;rounded=0;orthogonalLoop=1;jettySize=auto;html=1;" parent="1" source="g86L-Ri1vE0_HwikzMnk-52" edge="1">
          <mxGeometry relative="1" as="geometry">
            <mxPoint x="730.0000000000002" y="370" as="targetPoint" />
          </mxGeometry>
        </mxCell>
        <mxCell id="g86L-Ri1vE0_HwikzMnk-52" value="&lt;pre&gt;EXPANSION JOINT&lt;/pre&gt;" style="rounded=1;whiteSpace=wrap;html=1;" parent="1" vertex="1">
          <mxGeometry x="770" y="375" width="110" height="25" as="geometry" />
        </mxCell>
        <mxCell id="g86L-Ri1vE0_HwikzMnk-54" value="&lt;pre&gt; * Repeat this detail for every flag&lt;/pre&gt;" style="text;html=1;align=left;verticalAlign=middle;whiteSpace=wrap;rounded=0;strokeColor=none;" parent="1" vertex="1">
          <mxGeometry x="62.5" y="660" width="645" height="50" as="geometry" />
        </mxCell>
        <mxCell id="m-RgxqV9HFPQTTDNuUzK-1" value="" style="edgeStyle=isometricEdgeStyle;endArrow=openAsync;html=1;rounded=0;endFill=0;startArrow=block;startFill=1;" edge="1" parent="1">
          <mxGeometry width="50" height="100" relative="1" as="geometry">
            <mxPoint x="880.72" y="360" as="sourcePoint" />
            <mxPoint x="980.72" y="150" as="targetPoint" />
            <Array as="points">
              <mxPoint x="960.72" y="280" />
            </Array>
          </mxGeometry>
        </mxCell>
        <mxCell id="m-RgxqV9HFPQTTDNuUzK-2" value="2% SLOPE" style="edgeLabel;html=1;align=center;verticalAlign=middle;resizable=0;points=[];" vertex="1" connectable="0" parent="m-RgxqV9HFPQTTDNuUzK-1">
          <mxGeometry x="-0.1079" relative="1" as="geometry">
            <mxPoint as="offset" />
          </mxGeometry>
        </mxCell>
        <mxCell id="m-RgxqV9HFPQTTDNuUzK-3" value="" style="shape=dimension;direction=north;whiteSpace=wrap;html=1;align=center;points=[];verticalAlign=bottom;labelBackgroundColor=none;horizontal=0;spacingBottom=3;" vertex="1" parent="1">
          <mxGeometry x="1000" y="150" width="40" height="210" as="geometry" />
        </mxCell>
        <mxCell id="m-RgxqV9HFPQTTDNuUzK-4" value="" style="endArrow=none;dashed=1;html=1;rounded=0;" edge="1" parent="1">
          <mxGeometry width="50" height="50" relative="1" as="geometry">
            <mxPoint x="454.5" y="315" as="sourcePoint" />
            <mxPoint x="455" y="130" as="targetPoint" />
          </mxGeometry>
        </mxCell>
        <mxCell id="m-RgxqV9HFPQTTDNuUzK-5" value="" style="endArrow=none;dashed=1;html=1;rounded=0;" edge="1" parent="1">
          <mxGeometry width="50" height="50" relative="1" as="geometry">
            <mxPoint x="594.5" y="315" as="sourcePoint" />
            <mxPoint x="595" y="130" as="targetPoint" />
          </mxGeometry>
        </mxCell>
        <mxCell id="m-RgxqV9HFPQTTDNuUzK-7" style="edgeStyle=orthogonalEdgeStyle;rounded=0;orthogonalLoop=1;jettySize=auto;html=1;" edge="1" parent="1" source="m-RgxqV9HFPQTTDNuUzK-6">
          <mxGeometry relative="1" as="geometry">
            <mxPoint x="450" y="190" as="targetPoint" />
          </mxGeometry>
        </mxCell>
        <mxCell id="m-RgxqV9HFPQTTDNuUzK-6" value="&lt;font face=&quot;Lucida Console&quot;&gt;&lt;span style=&quot;font-size: 8px;&quot;&gt;TIE INTO CMU STEEL&lt;/span&gt;&lt;/font&gt;" style="rounded=1;whiteSpace=wrap;html=1;" vertex="1" parent="1">
          <mxGeometry x="210" y="160" width="90" height="45" as="geometry" />
        </mxCell>
      </root>
    </mxGraphModel>
  </diagram>
</mxfile>
